<svg width="24" height="24" viewBox="0 0 131 110" fill="none" xmlns="http://www.w3.org/2000/svg">
<path fill-rule="evenodd" clip-rule="evenodd" d="M105.269 0.5H106.305C115.209 0.5 121.219 4.25655 125.007 9.04177C128.714 13.7256 130.224 19.2943 130.494 23.0705L130.575 24.2145L94.2609 60.274L90.7378 56.726L125.388 22.319C124.98 19.3958 123.708 15.4576 121.086 12.1447C118.332 8.66548 114.03 5.78421 107.321 5.51979L74.5726 38.2678L71.0371 34.7322L105.269 0.5Z" fill="black"/>
<path fill-rule="evenodd" clip-rule="evenodd" d="M74.4861 34.8191C58.3354 29.7569 27.7696 30.7696 20.2486 81.102C19.6022 84.9803 15.4892 92.6719 4.29429 95.5007C12.0258 96.4002 22.3623 96.7012 31.7491 95.1086C42.7884 93.2357 51.8554 88.8717 54.5739 80.535C54.8307 79.7474 55.6774 79.3171 56.465 79.5739C57.2526 79.8307 57.6829 80.6774 57.4261 81.465C54.1446 91.5283 43.4616 96.1643 32.2509 98.0664C23.0414 99.6289 13.0293 99.4324 5.25084 98.624C40.8342 113.648 101.339 123.489 94.7347 55.791L74.4861 34.8191ZM0.49689 96.5199L0.543915 96.219C0.364105 96.2432 0.182803 96.2663 0 96.2883C0.164885 96.3655 0.330519 96.4427 0.49689 96.5199Z" fill="black"/>
</svg>
