<svg width="24" height="24" viewBox="0 0 88 91" fill="none" xmlns="http://www.w3.org/2000/svg">
<path d="M0 58.0703C0 55.8612 1.79086 54.0703 4 54.0703C6.20914 54.0703 8 55.8612 8 58.0703V69.8154L8.00586 70.3428C8.06118 73.0085 8.50233 76.0242 9.85352 78.3574C11.105 80.5185 13.3297 82.4728 18.1631 82.6162H67.46C69.5289 82.6162 72.5516 81.9972 74.9531 80.1738C77.1599 78.4981 79.2451 75.5152 79.2451 69.8242V58.0703C79.2451 55.8612 81.036 54.0703 83.2451 54.0703C85.4541 54.0705 87.2451 55.8613 87.2451 58.0703V69.8242C87.2451 77.8354 84.1307 83.2503 79.792 86.5449C75.6481 89.6917 70.7776 90.6162 67.46 90.6162H18.0518L17.9971 90.6152C10.4227 90.4107 5.61313 86.9983 2.93066 82.3662C0.433531 78.0541 0.00781965 73.0903 0 69.834V58.0703Z" fill="black"/>
<path d="M38.611 4C38.611 1.79086 40.4019 0 42.611 0C44.8201 0.000114415 46.611 1.79093 46.611 4V53.1143L60.6042 39.1211C62.1663 37.5591 64.6993 37.5591 66.2614 39.1211C67.8235 40.6832 67.8235 43.2162 66.2614 44.7783L42.611 68.4287L18.9606 44.7783C17.3985 43.2162 17.3985 40.6832 18.9606 39.1211C20.5226 37.5594 23.0549 37.5594 24.6169 39.1211L38.611 53.1152V4Z" fill="black"/>
</svg>
