<svg width="24" height="24" viewBox="0 0 132 142" fill="none" xmlns="http://www.w3.org/2000/svg">
<path fill-rule="evenodd" clip-rule="evenodd" d="M59.3767 108.753C86.6467 108.753 108.753 86.6467 108.753 59.3767C108.753 32.1067 86.6467 10 59.3767 10C32.1067 10 10 32.1067 10 59.3767C10 86.6467 32.1067 108.753 59.3767 108.753ZM59.3767 118.753C92.1695 118.753 118.753 92.1695 118.753 59.3767C118.753 26.5839 92.1695 0 59.3767 0C26.5839 0 0 26.5839 0 59.3767C0 92.1695 26.5839 118.753 59.3767 118.753Z" fill="black"/>
<path fill-rule="evenodd" clip-rule="evenodd" d="M123.464 140.475L95.8557 112.866L102.927 105.795L130.535 133.404C132.488 135.356 132.488 138.522 130.535 140.475C128.583 142.427 125.417 142.427 123.464 140.475Z" fill="black"/>
</svg>
