<svg width="120" height="120" viewBox="0 0 132 103" fill="none" xmlns="http://www.w3.org/2000/svg">
<path d="M17.8402 35.6196L1.99865 50.8275V68.57C14.165 77.1878 7.06795 85.2565 1.99865 88.2136V100.253L59.0283 95.8175C69.6739 78.075 80.3617 87.1575 84.3749 93.9165L129.999 90.7482V41.3226C123.409 1.78198 74.8699 -0.49921 51.4244 3.30277L27.9788 26.7483C28.9927 36.8869 21.6422 36.8869 17.8402 35.6196Z" fill="#FAE58F"/>
<path fill-rule="evenodd" clip-rule="evenodd" d="M52.3319 5.08369L29.9428 27.4728C30.0772 29.8086 29.7866 31.7557 29.1028 33.3423C28.3163 35.1672 27.0544 36.4064 25.5754 37.1565C23.2031 38.3599 20.4517 38.2316 18.373 37.7433L7.03591 48.6269L77.293 44.4942L77.5162 48.2896L3.89964 52.62V67.6059C6.66492 69.6989 8.5092 71.8501 9.55819 74.0369C10.7228 76.4648 10.8551 78.8326 10.3036 80.9862C9.35453 84.692 6.45267 87.5534 3.89964 89.2646V98.1986L57.9158 93.9973C63.2937 85.4574 69.1016 82.7267 74.5603 83.8146C79.3598 84.7711 83.1389 88.5824 85.3767 91.9414L128.098 88.9747V43.3754L105.432 45.119L105.14 41.3282L127.737 39.59C124.018 22.0626 111.345 12.5913 96.4578 7.8713C81.203 3.03479 63.8669 3.29901 52.3319 5.08369ZM97.6068 4.24711C113.929 9.42201 128.424 20.3111 131.874 41.0101L131.9 41.1652V92.5218L83.3382 95.8941L82.7403 94.8871C80.8416 91.6892 77.5396 88.2851 73.8172 87.5432C70.4429 86.8708 65.7825 88.2555 60.6584 96.7956L60.1537 97.6367L0.0976562 102.308V87.1217L1.04079 86.5715C3.37561 85.2096 5.91473 82.7986 6.62045 80.0429C6.95607 78.7324 6.89828 77.2825 6.13019 75.6813C5.34486 74.0441 3.76836 72.1531 0.899841 70.1213L0.0976562 69.553V50.0173L17.3521 33.4531L18.4414 33.8162C20.1206 34.3759 22.3193 34.5451 23.8555 33.7658C24.5627 33.4071 25.1859 32.8245 25.6113 31.8375C26.0521 30.8147 26.3196 29.2604 26.0873 26.9375L25.9977 26.0411L50.5142 1.52454L51.1201 1.42629C63.0379 -0.506319 81.3517 -0.906568 97.6068 4.24711Z" fill="black"/>
<path d="M105.919 45.1245C105.919 53.1736 99.3934 59.6987 91.3443 59.6987C83.2952 59.6987 76.77 53.1736 76.77 45.1245C76.77 37.0753 83.2952 30.5502 91.3443 30.5502C99.3934 30.5502 105.919 37.0753 105.919 45.1245Z" fill="#DABE92"/>
<path fill-rule="evenodd" clip-rule="evenodd" d="M91.3443 55.8967C97.2937 55.8967 102.117 51.0738 102.117 45.1245C102.117 39.1751 97.2937 34.3522 91.3443 34.3522C85.3949 34.3522 80.572 39.1751 80.572 45.1245C80.572 51.0738 85.3949 55.8967 91.3443 55.8967ZM91.3443 59.6987C99.3934 59.6987 105.919 53.1736 105.919 45.1245C105.919 37.0753 99.3934 30.5502 91.3443 30.5502C83.2952 30.5502 76.77 37.0753 76.77 45.1245C76.77 53.1736 83.2952 59.6987 91.3443 59.6987Z" fill="black"/>
<path d="M55.2254 64.1346C55.2254 69.384 50.9699 73.6395 45.7204 73.6395C40.471 73.6395 36.2155 69.384 36.2155 64.1346C36.2155 58.8851 40.471 54.6296 45.7204 54.6296C50.9699 54.6296 55.2254 58.8851 55.2254 64.1346Z" fill="#DABE92"/>
<path fill-rule="evenodd" clip-rule="evenodd" d="M45.7204 69.8375C48.8701 69.8375 51.4234 67.2842 51.4234 64.1346C51.4234 60.9849 48.8701 58.4316 45.7204 58.4316C42.5708 58.4316 40.0174 60.9849 40.0174 64.1346C40.0174 67.2842 42.5708 69.8375 45.7204 69.8375ZM45.7204 73.6395C50.9699 73.6395 55.2254 69.384 55.2254 64.1346C55.2254 58.8851 50.9699 54.6296 45.7204 54.6296C40.471 54.6296 36.2155 58.8851 36.2155 64.1346C36.2155 69.384 40.471 73.6395 45.7204 73.6395Z" fill="black"/>
<path d="M75.5046 22.3128C75.5046 27.5622 71.2491 31.8177 65.9996 31.8177C60.7502 31.8177 56.4947 27.5622 56.4947 22.3128C56.4947 17.0633 60.7502 12.8078 65.9996 12.8078C71.2491 12.8078 75.5046 17.0633 75.5046 22.3128Z" fill="#DABE92"/>
<path fill-rule="evenodd" clip-rule="evenodd" d="M65.9996 28.0157C69.1493 28.0157 71.7026 25.4624 71.7026 22.3128C71.7026 19.1631 69.1493 16.6098 65.9996 16.6098C62.85 16.6098 60.2967 19.1631 60.2967 22.3128C60.2967 25.4624 62.85 28.0157 65.9996 28.0157ZM65.9996 31.8177C71.2491 31.8177 75.5046 27.5622 75.5046 22.3128C75.5046 17.0633 71.2491 12.8078 65.9996 12.8078C60.7502 12.8078 56.4947 17.0633 56.4947 22.3128C56.4947 27.5622 60.7502 31.8177 65.9996 31.8177Z" fill="black"/>
</svg>